<?xml version="1.0" encoding="utf-8"?>
<!-- Generator: Adobe Illustrator 26.2.1, SVG Export Plug-In . SVG Version: 6.00 Build 0)  -->
<svg version="1.1" id="Capa_1" xmlns="http://www.w3.org/2000/svg" xmlns:xlink="http://www.w3.org/1999/xlink" x="0px" y="0px"
	 viewBox="0 0 300 300" style="enable-background:new 0 0 300 300;" xml:space="preserve">
<style type="text/css">
	.st0{fill:#ADD9D2;}
	.st1{fill:none;stroke:#ADD9D2;stroke-width:2;stroke-miterlimit:10;}
</style>
<g>
	<path class="st0" d="M150,205.2c40.6,0,73.6-26.8,73.6-59.8S190.6,85.6,150,85.6s-73.6,26.8-73.6,59.8c0,13,5.1,24.9,13.7,34.7
		c-0.5,7-3.3,13.3-6.2,18.1c-1.6,2.6-3.2,4.8-4.4,6.2c-0.6,0.7-1.1,1.3-1.4,1.6c-0.2,0.2-0.3,0.3-0.4,0.4l-0.1,0.1l0,0l0,0l0,0l0,0
		c-1.4,1.4-1.7,3.6-0.8,5.4c0.7,1.4,2.7,2.4,4.3,2.4c8.2,0,16.4-2.6,23.3-5.5c6.6-2.9,12.2-6.3,15.6-8.8
		C129.2,203.4,139.3,205.2,150,205.2L150,205.2z M113.3,154.6c-5.1,0-9.2-4.1-9.2-9.2c0-5.1,4.1-9.2,9.2-9.2c5.1,0,9.2,4.1,9.2,9.2
		S118.4,154.6,113.3,154.6z M150.1,154.6c-5.1,0-9.2-4.1-9.2-9.2c0-5.1,4.1-9.2,9.2-9.2s9.2,4.1,9.2,9.2S155.2,154.6,150.1,154.6z
		 M196.1,145.4c0,5.1-4.1,9.2-9.2,9.2s-9.2-4.1-9.2-9.2c0-5.1,4.1-9.2,9.2-9.2S196.1,140.3,196.1,145.4z"/>
</g>
<circle class="st1" cx="150" cy="150" r="144.8"/>
</svg>
