<?xml version="1.0" encoding="utf-8"?>
<!-- Generator: Adobe Illustrator 26.2.1, SVG Export Plug-In . SVG Version: 6.00 Build 0)  -->
<svg version="1.1" id="Capa_1" xmlns="http://www.w3.org/2000/svg" xmlns:xlink="http://www.w3.org/1999/xlink" x="0px" y="0px"
	 viewBox="0 0 300 300" style="enable-background:new 0 0 300 300;" xml:space="preserve">
<style type="text/css">
	.st0{fill:#ADD9D2;}
	.st1{fill:none;stroke:#ADD9D2;stroke-width:2;stroke-miterlimit:10;}
</style>
<g>
	<path class="st0" d="M150,95.2c-2,0-3.9,0.3-5.8,1L75.7,121c-2.3,0.9-3.9,3.1-3.9,5.5c0,2.5,1.5,4.7,3.9,5.5l14.1,5.1
		c-4,6.3-6.3,13.8-6.3,21.6v6.9c0,6.9-2.6,14.1-5.4,19.7c-1.6,3.2-3.4,6.3-5.5,9.2c-0.8,1.1-1,2.4-0.6,3.7s1.5,2.2,2.7,2.5l15.6,3.9
		c1,0.3,2.1,0.1,3-0.5c0.9-0.6,1.5-1.5,1.7-2.5c2.1-10.5,1.1-19.8-0.5-26.6c-0.8-3.5-1.8-7-3.3-10.3v-6c0-7.4,2.5-14.3,6.8-19.9
		c3.2-3.8,7.2-6.8,12-8.7l38.4-15.1c2-0.8,4.3,0.2,5.1,2.2c0.8,2-0.2,4.3-2.2,5.1l-38.4,15.1c-3,1.2-5.7,3-7.9,5.3l39,14.1
		c1.9,0.7,3.8,1,5.8,1s3.9-0.3,5.8-1l68.6-24.7c2.3-0.8,3.9-3.1,3.9-5.5c0-2.5-1.5-4.7-3.9-5.5l-68.5-24.8
		C153.9,95.6,152,95.2,150,95.2z M103,187.1c0,8.6,21,17.6,46.9,17.6s46.9-9,46.9-17.6l-3.7-35.5l-34.8,12.6c-2.7,1-5.6,1.5-8.4,1.5
		c-2.9,0-5.7-0.5-8.4-1.5l-34.8-12.6L103,187.1z"/>
</g>
<circle class="st1" cx="150" cy="150" r="144.8"/>
</svg>
